<svg width="24" height="22" viewBox="0 0 24 22" fill="none" xmlns="http://www.w3.org/2000/svg">
<path d="M8.8192 14.4285C13.6016 14.4285 17.6384 15.1886 17.6384 18.1277C17.6384 21.0644 13.5758 21.7992 8.8192 21.7992L8.49432 21.798C3.8554 21.7635 0 20.9724 0 18.1001C0 15.1633 4.06263 14.4285 8.8192 14.4285ZM16.2836 12.6591C18.1024 12.6246 20.0586 12.8695 20.7807 13.042C22.3118 13.3352 23.3181 13.932 23.7349 14.8024C24.0884 15.5154 24.0884 16.3433 23.7349 17.0562C23.0974 18.4039 21.0402 18.8374 20.2406 18.9489C20.075 18.9719 19.9424 18.8339 19.96 18.6706C20.3686 14.9358 17.1197 13.165 16.2789 12.758C16.2437 12.7384 16.2355 12.7108 16.239 12.6924C16.2414 12.6809 16.2566 12.6625 16.2836 12.6591ZM8.8192 0.199219C12.0587 0.199219 14.6548 2.7416 14.6548 5.91411C14.6548 9.08663 12.0587 11.629 8.8192 11.629C5.58084 11.629 2.98357 9.08663 2.98357 5.91411C2.98357 2.7416 5.58084 0.199219 8.8192 0.199219ZM16.6007 1.15373C19.7298 1.15373 22.1862 4.03533 21.349 7.24464C20.7842 9.40756 18.74 10.8438 16.4621 10.7851C16.2332 10.7805 16.0089 10.7587 15.7905 10.723C15.6332 10.6954 15.5533 10.5218 15.6437 10.393C16.5126 9.14079 17.0081 7.6333 17.0081 6.01772C17.0081 4.3297 16.468 2.75781 15.5275 1.4665C15.4969 1.42625 15.4746 1.36531 15.5052 1.31817C15.5287 1.28137 15.5756 1.26067 15.6191 1.25147C15.9361 1.18823 16.2613 1.15373 16.6007 1.15373Z" fill="white"/>
</svg>
