<svg width="24" height="24" viewBox="0 0 24 24" fill="none" xmlns="http://www.w3.org/2000/svg">
<g clip-path="url(#clip0)">
<path d="M23.063 15.3281C23.5808 15.3281 24.0005 14.9084 24.0005 14.3906V8.29688C24.0005 6.22913 22.3182 4.54688 20.2505 4.54688H18.8273C18.4258 4.54688 18.0692 4.29155 17.9398 3.91144L17.6561 3.07814C17.268 1.93795 16.1981 1.17188 14.9936 1.17188H9.00438C7.82332 1.17188 6.76024 1.91827 6.35913 3.02911L6.03461 3.9278C5.90088 4.29806 5.54655 4.54688 5.15285 4.54688H3.75049C1.68274 4.54688 0.000488281 6.22913 0.000488281 8.29688V19.0781C0.000488281 21.1459 1.68274 22.8281 3.75049 22.8281H20.2505C22.3182 22.8281 24.0005 21.1459 24.0005 19.0781C24.0005 18.5603 23.5808 18.1406 23.063 18.1406C22.5452 18.1406 22.1255 18.5603 22.1255 19.0781C22.1255 20.112 21.2844 20.9531 20.2505 20.9531H3.75049C2.71661 20.9531 1.87549 20.112 1.87549 19.0781V8.29688C1.87549 7.263 2.71661 6.42188 3.75049 6.42188H5.15285C6.33391 6.42188 7.39699 5.67548 7.7981 4.56464L8.12261 3.66595C8.25635 3.29569 8.61068 3.04688 9.00438 3.04688H14.9936C15.3951 3.04688 15.7518 3.30225 15.8812 3.68231L16.1648 4.51561C16.5529 5.6558 17.6229 6.42188 18.8273 6.42188H20.2505C21.2844 6.42188 22.1255 7.263 22.1255 8.29688V14.3906C22.1255 14.9084 22.5452 15.3281 23.063 15.3281Z" fill="white"/>
<path d="M12.0474 7.35938C8.8165 7.35938 6.18799 9.98789 6.18799 13.2188C6.18799 16.4496 8.8165 19.0781 12.0474 19.0781C15.2782 19.0781 17.9067 16.4496 17.9067 13.2188C17.9067 9.98789 15.2782 7.35938 12.0474 7.35938ZM12.0474 17.2031C9.85038 17.2031 8.06299 15.4157 8.06299 13.2188C8.06299 11.0218 9.85038 9.23438 12.0474 9.23438C14.2443 9.23438 16.0317 11.0218 16.0317 13.2188C16.0317 15.4157 14.2443 17.2031 12.0474 17.2031Z" fill="white"/>
</g>
<defs>
<clipPath id="clip0">
<rect width="24" height="24" fill="white" transform="translate(0.000488281)"/>
</clipPath>
</defs>
</svg>
