<svg width="25" height="24" viewBox="0 0 25 24" fill="none" xmlns="http://www.w3.org/2000/svg">
<path d="M9.76185 14.7775C13.5077 14.7775 16.6699 15.3938 16.6699 17.7743C16.6699 20.1547 13.4874 20.7505 9.76185 20.7505C6.01601 20.7505 2.85376 20.1332 2.85376 17.7537C2.85376 15.3733 6.03537 14.7775 9.76185 14.7775ZM18.5112 7.8554C18.9682 7.8554 19.3392 8.23253 19.3392 8.69507V9.77848H20.4473C20.9034 9.77848 21.2753 10.1556 21.2753 10.6182C21.2753 11.0807 20.9034 11.4578 20.4473 11.4578H19.3392V12.5422C19.3392 13.0047 18.9682 13.3819 18.5112 13.3819C18.055 13.3819 17.6831 13.0047 17.6831 12.5422V11.4578H16.5769C16.1198 11.4578 15.7489 11.0807 15.7489 10.6182C15.7489 10.1556 16.1198 9.77848 16.5769 9.77848H17.6831V8.69507C17.6831 8.23253 18.055 7.8554 18.5112 7.8554ZM9.76185 3.25C12.299 3.25 14.3328 5.31011 14.3328 7.88012C14.3328 10.4501 12.299 12.5102 9.76185 12.5102C7.22468 12.5102 5.19088 10.4501 5.19088 7.88012C5.19088 5.31011 7.22468 3.25 9.76185 3.25Z" fill="white"/>
</svg>
