<svg width="24" height="20" viewBox="0 0 24 20" fill="none" xmlns="http://www.w3.org/2000/svg">
<path fill-rule="evenodd" clip-rule="evenodd" d="M1.93603 19.5762C1.10761 19.5762 0.436035 18.9046 0.436035 18.0762C0.436035 17.2477 1.10761 16.5762 1.93604 16.5762H21.936C22.7645 16.5762 23.436 17.2477 23.436 18.0762C23.436 18.9046 22.7645 19.5762 21.936 19.5762H1.93603ZM1.93603 11.5762C1.10761 11.5762 0.436035 10.9046 0.436035 10.0762C0.436035 9.24774 1.10761 8.57617 1.93604 8.57617L16.936 8.57617C17.7645 8.57617 18.436 9.24774 18.436 10.0762C18.436 10.9046 17.7645 11.5762 16.936 11.5762L1.93603 11.5762ZM0.436035 2.07617C0.436035 2.9046 1.10759 3.57147 1.936 3.56567L21.9355 3.4256C22.7639 3.41979 23.4355 2.74352 23.4355 1.91509C23.4355 1.08666 22.7639 0.419794 21.9355 0.425596L1.936 0.565666C1.10759 0.571468 0.436035 1.24775 0.436035 2.07617Z" fill="white"/>
</svg>
